<?xml version="1.0" encoding="UTF-8" standalone="no"?>
<!-- Created with Inkscape (http://www.inkscape.org/) -->

<svg
   width="432"
   height="432"
   viewBox="0 0 114.3 114.3"
   version="1.1"
   id="svg1"
   inkscape:export-filename="432bg.png"
   inkscape:export-xdpi="96"
   inkscape:export-ydpi="96"
   sodipodi:docname="public_icon_workspace.svg"
   inkscape:version="1.4.3 (0d15f75042, 2025-12-25)"
   xml:space="preserve"
   xmlns:inkscape="http://www.inkscape.org/namespaces/inkscape"
   xmlns:sodipodi="http://sodipodi.sourceforge.net/DTD/sodipodi-0.dtd"
   xmlns="http://www.w3.org/2000/svg"
   xmlns:svg="http://www.w3.org/2000/svg"><sodipodi:namedview
     id="namedview1"
     pagecolor="#ffffff"
     bordercolor="#000000"
     borderopacity="0.25"
     inkscape:showpageshadow="2"
     inkscape:pageopacity="0.0"
     inkscape:pagecheckerboard="0"
     inkscape:deskcolor="#d1d1d1"
     inkscape:document-units="px"
     inkscape:zoom="0.50772211"
     inkscape:cx="235.36497"
     inkscape:cy="529.81738"
     inkscape:window-width="1920"
     inkscape:window-height="1008"
     inkscape:window-x="1920"
     inkscape:window-y="0"
     inkscape:window-maximized="1"
     inkscape:current-layer="layer2"><inkscape:page
       x="0"
       y="0"
       width="114.3"
       height="114.3"
       id="page2"
       margin="0"
       bleed="0" /></sodipodi:namedview><defs
     id="defs1" /><g
     inkscape:label="Background"
     inkscape:groupmode="layer"
     id="layer1"
     style="display:inline"><rect
       style="fill:#d4a373;fill-opacity:1;stroke-width:0.264999"
       id="rect1"
       width="114.3"
       height="114.3"
       x="0"
       y="0" /></g><g
     inkscape:groupmode="layer"
     id="layer2"
     inkscape:label="Foreground"
     style="display:inline"><path
       d="m 43.787504,55.239367 c -0.01194,0.322423 -0.01194,0.632902 -0.01194,0.955319 v 1.910633 c 0,0.322422 0,0.632902 0.01194,0.955319 h -1.922577 c -2.113638,0 -3.821269,1.707628 -3.821269,3.82127 0,2.113637 1.707631,3.821265 3.821269,3.821265 h 3.379434 c 3.534674,10.018888 13.099787,17.195709 24.324763,17.195709 h 2.86595 c 2.113637,0 3.821271,-1.707629 3.821271,-3.82127 0,-2.113637 -1.707634,-3.821266 -3.821271,-3.821266 h -2.86595 c -6.914108,0 -12.920665,-3.869034 -15.989621,-9.553173 h 15.034303 c 2.113639,0 3.821268,-1.707628 3.821268,-3.821265 0,-2.113642 -1.707629,-3.82127 -3.821268,-3.82127 H 51.441982 c -0.01195,-0.31048 -0.02388,-0.632897 -0.02388,-0.955319 v -1.910633 c 0,-0.322417 0.01194,-0.644839 0.02388,-0.955319 h 17.171823 c 2.11364,0 3.821269,-1.707628 3.821269,-3.821264 0,-2.113642 -1.707629,-3.821271 -3.821269,-3.821271 H 53.579504 c 3.068956,-5.684138 9.075513,-9.553171 15.98962,-9.553171 h 2.865951 c 2.113637,0 3.821271,-1.707629 3.821271,-3.821269 0,-2.113639 -1.707634,-3.821268 -3.821271,-3.821268 h -2.865951 c -11.224975,0 -20.790088,7.17682 -24.324762,17.195708 h -3.379434 c -2.113639,0 -3.821269,1.707629 -3.821269,3.821271 0,2.113636 1.70763,3.821264 3.821269,3.821264 z"
       id="path1"
       style="fill:#ccd5ae;fill-opacity:1;stroke-width:0.119414" /></g></svg>
